{"title":"Ghost 2012 DVDSCR","uid":7076275,"size":855727766,"categoryP":"video","categoryS":"movies","magnet":"?xt=urn:btih:7029976a52efff221c93a333ee3f9a83203113f0&amp;dn=Ghost+2012+DVDSCR&amp;tr=udp%3A%2F%2Ftracker.openbittorrent.com%3A80&amp;tr=udp%3A%2F%2Fopen.demonii.com%3A1337&amp;tr=udp%3A%2F%2Ftracker.coppersurfer.tk%3A6969&amp;tr=udp%3A%2F%2Fexodus.desync.com%3A6969","seeders":0,"leechers":0,"uploader":"arsenal_rocks","files":2,"time":1330859049,"description":" &lt;a href=&quot;http://img444.imageshack.us/img444/1044/ghost2012.jpg&quot; rel=&quot;nofollow&quot; target=&quot;_NEW&quot;&gt;http://img444.imageshack.us/img444/1044/ghost2012.jpg&lt;/a&gt;\n\nGeneral\nComplete name                            : Ghost 2012 DVDSCR.avi\nFormat                                   : AVI\nFormat/Info                              : Audio Video Interleave\nFile size                                : 816 MiB\nDuration                                 : 1h 59mn\nOverall bit rate                         : 958 Kbps\nWriting application                      : Lavf52.93.0\n\nVideo\nID                                       : 0\nFormat                                   : MPEG-4 Visual\nFormat profile                           : Simple@L1\nFormat settings, BVOP                    : No\nFormat settings, QPel                    : No\nFormat settings, GMC                     : No warppoints\nFormat settings, Matrix                  : Default (H.263)\nCodec ID                                 : FMP4\nDuration                                 : 1h 59mn\nBit rate                                 : 816 Kbps\nWidth                                    : 672 pixels\nHeight                                   : 288 pixels\nDisplay aspect ratio                     : 2.35:1\nFrame rate                               : 29.970 fps\nColor space                              : YUV\nChroma subsampling                       : 4:2:0\nBit depth                                : 8 bits\nScan type                                : Progressive\nCompression mode                         : Lossy\nBits/(Pixel*Frame)                       : 0.141\nStream size                              : 695 MiB (85%)\nWriting library                          : Lavc52.108.0\n\nAudio\nID                                       : 1\nFormat                                   : MPEG Audio\nFormat version                           : Version 1\nFormat profile                           : Layer 2\nCodec ID                                 : 50\nDuration                                 : 1h 59mn\nBit rate mode                            : Constant\nBit rate                                 : 128 Kbps\nChannel(s)                               : 2 channels\nSampling rate                            : 48.0 KHz\nCompression mode                         : Lossy\nStream size                              : 109 MiB (13%)\nAlignment                                : Aligned on interleaves\nInterleave, duration                     : 24 ms (0.72 video frame)\nInterleave, preload duration             : 48 ms\n\n &lt;a href=&quot;\nhttp://img259.imageshack.us/img259/1917/17870411.jpg&quot; rel=&quot;nofollow&quot; target=&quot;_NEW&quot;&gt;\nhttp://img259.imageshack.us/img259/1917/17870411.jpg&lt;/a&gt;","torrent":{"xt":"urn:btih:7029976a52efff221c93a333ee3f9a83203113f0","amp;dn":"Ghost+2012+DVDSCR","amp;tr":["udp%3A%2F%2Ftracker.openbittorrent.com%3A80","udp%3A%2F%2Fopen.demonii.com%3A1337","udp%3A%2F%2Ftracker.coppersurfer.tk%3A6969","udp%3A%2F%2Fexodus.desync.com%3A6969"],"infoHash":"7029976a52efff221c93a333ee3f9a83203113f0","infoHashBuffer":{"type":"Buffer","data":[112,41,151,106,82,239,255,34,28,147,163,51,238,63,154,131,32,49,19,240]},"announce":[],"urlList":[]}}